<?xml version="1.0" standalone="no"?>
<!DOCTYPE svg PUBLIC "-//W3C//DTD SVG 20010904//EN"
 "http://www.w3.org/TR/2001/REC-SVG-20010904/DTD/svg10.dtd">
<svg version="1.0" xmlns="http://www.w3.org/2000/svg"
 width="700.000000pt" height="700.000000pt" viewBox="0 0 700.000000 700.000000"
 preserveAspectRatio="xMidYMid meet">
<metadata>
Created by potrace 1.11, written by Peter Selinger 2001-2013
</metadata>
<g transform="translate(0.000000,700.000000) scale(0.100000,-0.100000)"
fill="#000000" stroke="none">
<path d="M3428 6975 c-2 -1 -59 -5 -128 -8 -204 -10 -422 -43 -645 -98 -118
-29 -355 -105 -418 -133 -18 -8 -75 -32 -127 -54 -240 -101 -544 -284 -770
-463 -313 -248 -569 -534 -786 -879 -275 -438 -468 -1001 -509 -1490 -3 -30
-8 -75 -11 -100 -7 -61 -7 -444 0 -506 3 -27 10 -93 17 -148 6 -54 12 -108 15
-119 2 -12 6 -39 10 -62 24 -166 96 -432 176 -645 406 -1086 1355 -1909 2492
-2160 72 -15 149 -31 171 -35 489 -76 903 -64 1365 40 628 141 1245 488 1702
956 196 201 332 378 513 666 55 87 184 353 234 483 94 241 178 549 206 760 3
25 8 56 10 70 2 14 6 52 9 85 3 33 9 87 12 120 8 81 7 402 0 495 -10 115 -35
309 -41 320 -1 3 -6 28 -9 55 -10 78 -74 328 -116 455 -241 731 -706 1352
-1335 1782 -102 69 -158 104 -275 172 -171 99 -468 225 -670 285 -58 17 -118
35 -135 40 -28 9 -183 43 -250 56 -90 18 -301 45 -389 50 -114 7 -314 13 -318
10z"/>
</g>
</svg>
